<?xml version="1.0" encoding="UTF-8" standalone="no"?>
<!-- Created with Inkscape (http://www.inkscape.org/) -->

<svg
   xmlns:dc="http://purl.org/dc/elements/1.1/"
   xmlns:cc="http://creativecommons.org/ns#"
   xmlns:rdf="http://www.w3.org/1999/02/22-rdf-syntax-ns#"
   xmlns:svg="http://www.w3.org/2000/svg"
   xmlns="http://www.w3.org/2000/svg"
   xmlns:sodipodi="http://sodipodi.sourceforge.net/DTD/sodipodi-0.dtd"
   xmlns:inkscape="http://www.inkscape.org/namespaces/inkscape"
   width="210mm"
   height="297mm"
   viewBox="0 0 210 297"
   version="1.1"
   id="svg8"
   sodipodi:docname="schemas.svg"
   inkscape:version="0.92.5 (2060ec1f9f, 2020-04-08)">
  <defs
     id="defs2" />
  <sodipodi:namedview
     id="base"
     pagecolor="#ffffff"
     bordercolor="#666666"
     borderopacity="1.0"
     inkscape:pageopacity="0.0"
     inkscape:pageshadow="2"
     inkscape:zoom="0.66"
     inkscape:cx="46.493506"
     inkscape:cy="1075.1515"
     inkscape:document-units="mm"
     inkscape:current-layer="layer1"
     showgrid="true"
     inkscape:window-width="1920"
     inkscape:window-height="1011"
     inkscape:window-x="0"
     inkscape:window-y="22"
     inkscape:window-maximized="1"
     showguides="false">
    <inkscape:grid
       type="xygrid"
       id="grid63" />
  </sodipodi:namedview>
  <metadata
     id="metadata5">
    <rdf:RDF>
      <cc:Work
         rdf:about="">
        <dc:format>image/svg+xml</dc:format>
        <dc:type
           rdf:resource="http://purl.org/dc/dcmitype/StillImage" />
      </cc:Work>
    </rdf:RDF>
  </metadata>
  <g
     inkscape:label="Common"
     inkscape:groupmode="layer"
     id="layer1"
     style="display:inline">
    <rect
       id="rect65"
       width="190.5"
       height="31.75"
       x="10.583333"
       y="11.25"
       style="fill:none;stroke:#000000;stroke-width:2.3657155;stroke-miterlimit:4;stroke-dasharray:none;stroke-opacity:1" />
    <path
       style="fill:none;stroke:#000000;stroke-width:2.3657155;stroke-miterlimit:4;stroke-dasharray:none;stroke-opacity:1"
       d="m 10.583333,148.83333 c 63.5,0 126.999997,0 190.499997,0 0,10.58333 0,21.16666 0,31.75 -63.5,0 -126.999997,0 -190.499997,0 0,-10.58334 0,-21.16667 0,-31.75 z"
       id="rect65-3"
       inkscape:connector-curvature="0" />
  </g>
  <g
     inkscape:groupmode="layer"
     id="layer2"
     inkscape:label="Home Conocimientos"
     style="display:none"
     sodipodi:insensitive="true">
    <rect
       style="fill:none;stroke:#000000;stroke-width:2.26499987;stroke-miterlimit:4;stroke-dasharray:none;stroke-opacity:1"
       id="rect4592"
       width="42.333332"
       height="26.458332"
       x="26.458336"
       y="58.875" />
    <rect
       y="58.875"
       x="84.666672"
       height="26.458332"
       width="42.333332"
       id="rect4594"
       style="fill:none;stroke:#000000;stroke-width:2.26499987;stroke-miterlimit:4;stroke-dasharray:none;stroke-opacity:1" />
    <rect
       style="fill:none;stroke:#000000;stroke-width:2.26499987;stroke-miterlimit:4;stroke-dasharray:none;stroke-opacity:1"
       id="rect4598"
       width="42.333332"
       height="26.458332"
       x="142.875"
       y="58.875" />
    <rect
       y="101.20834"
       x="26.458334"
       height="26.458332"
       width="42.333332"
       id="rect4600"
       style="fill:none;stroke:#000000;stroke-width:2.26499987;stroke-miterlimit:4;stroke-dasharray:none;stroke-opacity:1" />
    <rect
       style="fill:none;stroke:#000000;stroke-width:2.26499987;stroke-miterlimit:4;stroke-dasharray:none;stroke-opacity:1"
       id="rect4602"
       width="42.333332"
       height="26.458332"
       x="84.666672"
       y="101.20834" />
    <rect
       y="101.20834"
       x="142.875"
       height="26.458332"
       width="42.333332"
       id="rect4604"
       style="fill:none;stroke:#000000;stroke-width:2.26499987;stroke-miterlimit:4;stroke-dasharray:none;stroke-opacity:1" />
    <path
       style="fill:none;stroke:#000000;stroke-width:0.26458332px;stroke-linecap:butt;stroke-linejoin:miter;stroke-opacity:1"
       d="m -169.33333,80.041667 c 1.76798,-5.745935 0.36994,-0.828045 1.36301,-5.131313 0.24777,-1.073706 0.53451,-2.138048 0.80176,-3.207073 0.26726,-1.069022 0.49084,-2.149922 0.80177,-3.20707 0.3577,-1.216194 0.84495,-2.391762 1.20265,-3.607954 0.31093,-1.057148 0.47309,-2.155306 0.80177,-3.20707 2.10526,-5.614035 0.41096,-0.834514 2.00442,-6.013259 0.44443,-1.444403 0.98591,-3.020071 1.60353,-4.409721 0.24271,-0.546097 0.56636,-1.054253 0.80177,-1.603536 0.13363,-0.400883 0.26726,-0.801767 0.40089,-1.20265 0.13362,-0.133628 0.31637,-0.231857 0.40088,-0.400886 0.0598,-0.119521 -0.13363,-0.400884 0,-0.400884 0.63414,0 0.33826,1.046097 0.40088,1.202653 0.17894,0.447342 0.53451,0.801767 0.80177,1.20265 0.13363,0.801767 0.17758,1.623751 0.40088,2.405304 0.31366,1.097788 0.8805,2.111745 1.20266,3.20707 0.34762,1.181928 0.48823,2.416529 0.80176,3.607956 1.54789,5.88196 0.77878,2.086605 2.40531,7.616793 0.62185,2.114296 0.95541,4.307747 1.60353,6.41414 0.21163,0.687787 0.57421,1.32174 0.80177,2.00442 0.76026,2.280777 0.0296,0.875842 0.80177,2.806187 0.11097,0.277429 0.10208,0.801767 0.40088,0.801767 0.26726,0 0.0648,-0.542491 0,-0.801767 -0.0875,-0.350065 -1.01682,-1.691616 -0.80177,-2.00442 0.48309,-0.702667 1.44319,-0.908669 2.16478,-1.363004"
       id="path4636"
       inkscape:connector-curvature="0" />
    <path
       style="fill:none;stroke:#000000;stroke-width:0.26458332px;stroke-linecap:butt;stroke-linejoin:miter;stroke-opacity:1"
       d="m -169.33333,64.166667 c 1.89685,0.602832 3.84516,0.160076 5.77273,0.320707 0.94162,0.07847 1.86369,0.333563 2.80618,0.400883 0.93302,0.06664 1.87317,-0.06665 2.80619,0 7.19979,0.514271 -1.19332,0.400884 5.21149,0.400884 0.80177,0 1.60354,0 2.4053,0 0.40089,0 0.80722,-0.06591 1.20265,0 2.65885,0.44314 0.35969,0.400883 1.60354,0.400883 0.13363,0 0.45274,0.123156 0.40088,0 -0.23876,-0.567055 -0.69486,-1.015571 -1.04229,-1.523357"
       id="path4638"
       inkscape:connector-curvature="0" />
    <path
       style="fill:none;stroke:#000000;stroke-width:0.26458332px;stroke-linecap:butt;stroke-linejoin:miter;stroke-opacity:1"
       d="m -137.58333,64.166667 c 0.16035,0.374158 0.32071,0.748316 0.48106,1.122474 0.26725,0.534511 0.55906,1.057439 0.80177,1.603536 0.29226,0.657585 0.53451,1.336278 0.80176,2.004417 0.53135,1.328375 1.26043,3.037287 1.60354,4.409723 0.89888,3.595529 0.0397,1.198542 0.40088,4.810607 0.0548,0.548227 0.40089,1.052573 0.40089,1.603534 0,0.422568 -0.31802,0.788289 -0.40089,1.202653 -0.0313,0.156553 0.21112,1.20265 -0.40088,1.20265 -0.18898,0 -0.26726,-0.267256 -0.40088,-0.400884 -0.74157,-0.741568 -0.29606,-0.243644 -1.20266,-1.603533 -0.26725,-0.400886 -0.5863,-0.771716 -0.80176,-1.202653 -0.32182,-0.643636 -0.53452,-1.336278 -0.80177,-2.00442 -0.6732,-1.683012 -1.02198,-2.202135 -1.20265,-4.008837 -0.16822,-1.682155 0.0948,-2.726269 0.40088,-4.409723 0.12189,-0.67038 0.12415,-1.381773 0.40089,-2.00442 0.27135,-0.610552 0.84853,-1.036952 1.20265,-1.603534 0.31673,-0.506767 0.3792,-1.180967 0.80176,-1.603536 0.2695,-0.269494 2.24717,-1.122791 2.80619,-1.20265 0.52914,-0.07559 1.07315,-0.0663 1.60354,0 1.14401,0.143002 3.16075,0.755451 4.00883,1.603533 0.70278,0.702776 0.94182,1.492369 1.20266,2.405304 0.15136,0.529764 0.34004,1.055944 0.40088,1.603536 0.21562,1.940573 -0.33821,3.758147 -0.80177,5.612373 -0.13363,0.534512 -0.18385,1.097122 -0.40088,1.603537 -0.18979,0.442846 -0.53451,0.801767 -0.80177,1.20265 -0.53451,0.801767 -1.00158,1.652855 -1.60353,2.405303 -0.23611,0.295135 -0.53452,0.534512 -0.80177,0.801767 -0.13363,0.133628 -0.31637,0.231857 -0.40089,0.400884 -0.0598,0.11952 0.0945,0.306395 0,0.400886 -0.0945,0.09449 -0.40088,0.133627 -0.40088,0 0,-0.133631 0.26726,0 0.40088,0 0.40089,0 0.80177,0 1.20266,0 1.1403,0 2.58987,-0.209966 3.60795,0.400883 0.32409,0.194456 0.47767,0.607309 0.80177,0.801767 0.36235,0.217411 0.8403,0.183475 1.20265,0.400883 0.32409,0.194459 0.47767,0.607312 0.80177,0.801767 0.36235,0.217411 0.82469,0.211908 1.20265,0.400886 0.43094,0.215469 0.77171,0.586298 1.20265,0.801767 0.37796,0.188979 0.81031,0.243946 1.20265,0.400884 0.27743,0.110971 0.51189,0.328414 0.80177,0.400883 1.01575,0.253937 0.65756,-0.164388 1.60353,-0.400883 0.25928,-0.06482 0.54823,0.08451 0.80177,0 0.35856,-0.119521 0.46372,-0.632741 0.80177,-0.801767 0.11952,-0.05976 0.40088,-0.133628 0.40088,0 0,0.133628 -0.28136,-0.05976 -0.40088,0 -0.16903,0.08451 -0.31637,0.231857 -0.40088,0.400883 -0.0598,0.11952 0,0.267256 0,0.400884 -0.32071,0.400883 -0.64142,0.801766 -0.96213,1.202653"
       id="path4640"
       inkscape:connector-curvature="0" />
    <path
       style="fill:none;stroke:#000000;stroke-width:0.26458332px;stroke-linecap:butt;stroke-linejoin:miter;stroke-opacity:1"
       d="m -116.41667,80.041667 c 0.45434,-0.374161 0.82379,-0.886566 1.36301,-1.122476 0.89293,-0.390658 1.59424,0.285017 2.4053,0.400883 0.52914,0.07559 1.07315,0.0663 1.60354,0 1.08737,-0.135922 3.57283,-0.906124 4.40972,-1.603534 0.37013,-0.308443 0.53451,-0.801769 0.80177,-1.202653 0.26725,-0.400883 0.61197,-0.759803 0.80176,-1.20265 0.30853,-0.719883 0.53884,-1.978501 0.40089,-2.806186 -0.18441,-1.106488 -0.58701,-1.48185 -1.20265,-2.405304 -1.37446,-2.061689 -0.0954,-0.477242 -2.00442,-2.00442 -0.29514,-0.236108 -0.47767,-0.607311 -0.80177,-0.801766 -0.87942,-0.527656 -1.44752,-0.400884 -2.4053,-0.400884 -0.63511,0 -1.08313,-0.119523 -1.60354,0.400884 -0.0144,0.01439 -0.76011,1.534109 -0.80177,1.603533 -0.59545,0.992421 -1.03594,1.238332 -1.20265,2.405304 -0.0756,0.52914 0.059,1.072292 0,1.603536 -0.0752,0.677204 -0.40088,1.323046 -0.40088,2.00442 0,0.253994 0.64716,3.195658 0.80177,3.607953 0.20983,0.559552 0.53451,1.069023 0.80176,1.603537 0.26726,0.534511 0.3792,1.180965 0.80177,1.603533 0.42257,0.422569 1.08467,0.505275 1.60354,0.801767 0.41832,0.239043 0.77171,0.586301 1.20265,0.80177 1.13982,0.56991 1.50097,0.400883 2.80619,0.400883 0.40088,0 0.80722,0.06591 1.20265,0 0.41682,-0.06947 0.80176,-0.267255 1.20265,-0.400883 0.40088,-0.133628 0.80177,-0.267256 1.20265,-0.400884 0.40088,-0.133627 0.90385,-0.102084 1.20265,-0.400886 0.7076,-0.707596 1.12248,-1.656985 1.68371,-2.485477"
       id="path4642"
       inkscape:connector-curvature="0" />
    <path
       style="fill:none;stroke:#000000;stroke-width:0.26458332px;stroke-linecap:butt;stroke-linejoin:miter;stroke-opacity:1"
       d="m -89.958332,69.458334 c -0.08018,0.48106 0.104322,1.098328 -0.24053,1.44318 -0.283467,0.283467 -0.807223,-0.06591 -1.202653,0 -0.416817,0.06947 -0.785831,0.331415 -1.202651,0.400884 -0.39543,0.06591 -0.807222,-0.06591 -1.20265,0 -0.416819,0.06947 -0.801769,0.267255 -1.202653,0.400883 -0.400883,0.133628 -0.824695,0.211907 -1.20265,0.400886 -1.116248,0.558123 -1.518708,1.117822 -2.405303,2.004417 -0.400884,0.400884 -0.888172,0.730933 -1.202653,1.202653 -0.234395,0.351597 -0.267255,0.801767 -0.400885,1.20265 -0.40305,1.209157 -0.87065,2.447081 0,3.607957 0.364925,0.486563 1.478451,1.42821 2.004421,1.603533 0.380312,0.12677 0.801767,0 1.20265,0 0.534514,0 1.084985,0.129638 1.603537,0 0.57976,-0.144938 1.08467,-0.505274 1.603536,-0.801766 1.457574,-0.832901 2.773334,-2.147369 3.607954,-3.607957 0.209653,-0.366892 0.267255,-0.801767 0.400883,-1.20265 0.133628,-0.400883 0.318011,-0.788289 0.400884,-1.20265 0.104828,-0.524135 0,-1.069025 0,-1.603537 0,-0.23958 0.09449,-0.801766 -0.400884,-0.801766 -0.133628,0 0,0.267255 0,0.400883 0,0.267256 0,0.534511 0,0.801767 0,0.400883 -0.06591,0.807222 0,1.202653 0.184415,1.106485 0.587015,1.481846 1.202653,2.4053 0.906592,1.359893 0.461082,0.861968 1.20265,1.603537 1.546874,1.546873 0.03057,0.408527 1.603537,0.801767 0.289877,0.07247 0.502965,0.400886 0.801767,0.400886 0.298802,0 0.534511,-0.267259 0.801767,-0.400886 0.267255,-0.133628 1.050385,-0.566629 0.801766,-0.400884 -0.408217,0.272145 -0.855218,0.48106 -1.282827,0.721593"
       id="path4644"
       inkscape:connector-curvature="0" />
    <path
       style="fill:none;stroke:#000000;stroke-width:0.26458332px;stroke-linecap:butt;stroke-linejoin:miter;stroke-opacity:1"
       d="m -74.083332,64.166667 c -2.450659,0.537948 -3.226369,-0.0886 -4.089017,1.924241 -0.217032,0.506415 -0.24952,1.073771 -0.400883,1.603536 -0.303903,1.063659 -0.974392,2.118548 0.400883,2.806187 0.360376,0.180186 3.418171,0.770136 3.607956,0.801767 0.01916,0.0032 5.607169,0.800568 5.612374,0.801769 0.823494,0.190037 1.625176,0.476713 2.405303,0.801767 1.919613,0.799838 3.856702,1.796754 4.409723,4.008837 0.52959,2.118368 -1.097219,3.878442 -2.806189,4.810606 -0.741942,0.404696 -1.616496,0.498383 -2.405301,0.801767 -0.949849,0.365326 -2.340753,0.297643 -2.806189,1.202653 -0.320837,0.623848 0.908672,1.069023 1.363006,1.603537"
       id="path4646"
       inkscape:connector-curvature="0" />
    <path
       style="fill:none;stroke:#000000;stroke-width:0.26458332px;stroke-linecap:butt;stroke-linejoin:miter;stroke-opacity:1"
       d="m -164.04166,106.5 c 0.0267,0.29398 0.22489,0.62466 0.0802,0.88194 -0.14649,0.26043 -0.53451,0.26726 -0.80176,0.40089 -0.53452,0.26725 -1.06903,0.53451 -1.60354,0.80176 -0.53451,0.26726 -1.12545,0.44321 -1.60353,0.80177 -0.95838,0.71878 -2.54644,2.69959 -3.20708,3.60796 -1.63434,2.24723 -3.20607,4.80361 -3.60795,7.61679 -0.13229,0.92599 0,1.87079 0,2.80619 0,0.66814 -0.14494,1.35219 0,2.00442 0.22911,1.03101 1.163,2.20517 2.00442,2.80618 0.48629,0.34735 1.06902,0.53451 1.60353,0.80177 0.53452,0.26726 1.02017,0.67213 1.60354,0.80177 0.65223,0.14494 1.34036,-0.0738 2.00442,0 2.13468,0.23719 0.98789,0.77927 2.80619,0 0.54928,-0.23541 1.41455,-0.23483 1.60353,-0.80177 0.17113,-0.51338 -0.58796,-0.90867 -0.88194,-1.363"
       id="path4648"
       inkscape:connector-curvature="0" />
    <path
       style="fill:none;stroke:#000000;stroke-width:0.26458332px;stroke-linecap:butt;stroke-linejoin:miter;stroke-opacity:1"
       d="m -158.75,117.08333 c 0.53451,0.10691 1.32716,-0.14913 1.60354,0.32071 0.40651,0.69107 -0.0666,1.6063 0,2.4053 0.19128,2.29535 0.38931,2.37637 1.20265,4.40972 0.77248,1.93122 0.98685,3.37449 3.20707,4.00884 1.44985,0.41425 3.9036,-0.96783 4.81061,-2.00442 0.51309,-0.58639 0.77044,-1.3561 1.20265,-2.00442 0.37061,-0.55592 0.93129,-0.99298 1.20265,-1.60353 0.51317,-1.15464 0.70285,-3.63919 0,-4.81061 -0.19446,-0.32409 -0.53451,-0.53451 -0.80177,-0.80177 -0.26725,-0.26725 -0.4432,-0.68224 -0.80177,-0.80176 -0.50708,-0.16903 -1.06902,0 -1.60353,0 -0.66814,0 -1.33628,0 -2.00442,0 -0.53451,0 -1.07229,-0.059 -1.60354,0 -0.6772,0.0752 -1.34339,0.23562 -2.00441,0.40088 -0.40996,0.10249 -0.78584,0.33141 -1.20266,0.40088 -0.66685,0.11115 -1.60353,-0.26638 -1.60353,0.40089 0,0.31195 1.14058,-0.34667 0.80177,-0.40089 -0.79214,-0.12674 -1.60354,0.0534 -2.40531,0.0802"
       id="path4650"
       inkscape:connector-curvature="0" />
    <path
       style="fill:none;stroke:#000000;stroke-width:0.26458332px;stroke-linecap:butt;stroke-linejoin:miter;stroke-opacity:1"
       d="m -142.875,122.375 c 0.98885,1.28283 1.9777,2.56565 2.96654,3.84848 0.13363,0 0.34113,0.11952 0.40089,0 0.37649,-0.75299 -0.69145,-2.43481 -0.80177,-3.20707 -0.24491,-1.71438 0.12281,-1.53864 0.40088,-3.20707 0.0439,-0.26362 -0.0648,-0.54249 0,-0.80177 0.0725,-0.28988 0.1896,-0.59048 0.40089,-0.80176 0.59715,-0.59716 1.80814,-0.59716 2.4053,0 0.34068,0.34068 0.52173,0.81059 0.80177,1.20265 0.0188,0.0263 2.40259,3.2022 2.4053,3.20707 0.34947,0.62905 0.50951,1.34683 0.80177,2.00442 0.24271,0.54609 0.47027,1.1063 0.80176,1.60353 0.18732,0.28097 1.48392,1.54966 2.00442,1.20265 1.07223,-0.71481 0.88377,-1.12976 1.20266,-2.4053 0.13362,-0.53451 0.24256,-1.07581 0.40088,-1.60353 0.24285,-0.8095 0.65059,-1.5738 0.80177,-2.40531 0.11952,-0.65736 -0.0665,-1.33959 0,-2.00442 0.0678,-0.67799 0.32564,-1.32721 0.40088,-2.00442 0.059,-0.53124 -0.0756,-1.07439 0,-1.60353 0.0598,-0.41832 0.2984,-0.7927 0.40088,-1.20265 0.0324,-0.12964 -0.13362,-0.40089 0,-0.40089 0.70335,0 0.26268,0.92625 0.40089,1.20266 0.0845,0.16902 0.23186,0.31637 0.40088,0.40088 0.11952,0.0598 0.45352,-0.12282 0.40089,0 -0.26571,0.61998 -0.74832,1.12247 -1.12248,1.68371"
       id="path4652"
       inkscape:connector-curvature="0" />
    <path
       style="fill:none;stroke:#000000;stroke-width:0.26458332px;stroke-linecap:butt;stroke-linejoin:miter;stroke-opacity:1"
       d="m -116.41667,117.08333 c -0.34743,0.10691 -0.86916,10e-4 -1.04229,0.32071 -0.25458,0.46999 -0.059,1.07229 0,1.60353 0.25779,2.32017 0.32445,1.63201 1.20265,3.60796 0.93087,2.09445 0.96233,3.27406 2.80618,4.8106 1.22897,1.02414 0.97649,0.80177 2.40531,0.80177 0.40088,0 0.85889,0.20626 1.20265,0 0.41314,-0.24788 0.53451,-0.80177 0.80177,-1.20265 0.26725,-0.40088 0.63259,-0.75152 0.80176,-1.20265 0.50572,-1.34856 0.40089,-2.24871 0.40089,-3.60796 0,-1.09477 0.10483,-2.59653 -0.40089,-3.60795 -0.25354,-0.50708 -0.76711,-0.83971 -1.20265,-1.20265 -0.54069,-0.45058 -2.20951,-1.43306 -2.80618,-1.60354 -0.68767,-0.19647 -2.27875,0.17281 -2.80619,0.40089 -0.4967,0.21479 -0.90867,0.58796 -1.36301,0.88194 z"
       id="path4654"
       inkscape:connector-curvature="0" />
    <path
       style="fill:none;stroke:#000000;stroke-width:0.26458332px;stroke-linecap:butt;stroke-linejoin:miter;stroke-opacity:1"
       d="m -95.249999,117.08333 c -0.651422,0.37224 -0.826309,0.40688 -1.363006,1.12248 -0.179279,0.23904 -0.221602,0.56272 -0.400884,0.80176 -0.226774,0.30237 -0.565658,0.50664 -0.801766,0.80177 -0.30098,0.37623 -0.534512,0.80177 -0.801767,1.20265 -0.267256,0.40089 -0.586301,0.77172 -0.80177,1.20265 -0.56991,1.13983 -0.400883,1.50097 -0.400883,2.80619 0,0.40089 -0.05669,0.8058 0,1.20265 0.03776,0.26429 0.390723,1.99426 0.801769,2.40531 0.340686,0.34068 0.826426,0.50078 1.202651,0.80176 0.295134,0.23611 0.443206,0.68225 0.801766,0.80177 0.507085,0.16903 1.069026,0 1.603537,0 0.400883,0 0.801767,0 1.20265,0 0.400886,0 0.822341,0.12677 1.202653,0 0.457078,-0.15236 0.826426,-0.50079 1.20265,-0.80177 0.295135,-0.2361 0.534514,-0.53451 0.80177,-0.80176 0.400883,-0.40089 0.921372,-0.71042 1.20265,-1.20266 0.273354,-0.47837 0.706504,-2.06196 0.400884,-1.60353 -0.35641,0.53461 -0.374158,1.22938 -0.561237,1.84407"
       id="path4656"
       inkscape:connector-curvature="0" />
    <path
       style="fill:none;stroke:#000000;stroke-width:0.26458332px;stroke-linecap:butt;stroke-linejoin:miter;stroke-opacity:1"
       d="m -84.666666,122.375 c -0.24053,-0.18708 -0.585316,-0.83379 -0.72159,-0.56124 -0.188978,0.37796 0.234426,0.81425 0.400884,1.20265 1.486119,3.46761 0.262506,-0.0142 1.20265,2.80619 0.133628,0.40088 0.318013,0.78829 0.400883,1.20265 0.05241,0.26207 -0.08451,0.54823 0,0.80177 0.05976,0.17928 0.267259,0.53451 0.400886,0.40088 0.188979,-0.18898 0.25354,-0.71725 0,-0.80177 -0.537842,-0.17928 -1.122476,0.16036 -1.683713,0.24054"
       id="path4658"
       inkscape:connector-curvature="0" />
    <path
       style="fill:none;stroke:#000000;stroke-width:0.26458332px;stroke-linecap:butt;stroke-linejoin:miter;stroke-opacity:1"
       d="m -74.083332,117.08333 c -0.694865,1.0423 -1.630564,1.95939 -2.084597,3.1269 -0.153157,0.39383 0.267256,0.80176 0.400884,1.20265 0.133627,0.40088 0.284797,0.79634 0.400886,1.20265 0.894887,3.1321 -0.0016,-0.0151 0.400883,3.60795 0.06084,0.5476 0.332544,1.05683 0.400883,1.60354 0.0663,0.53038 0,1.06902 0,1.60353 0,0.26726 0.05241,0.53971 0,0.80177 -0.08287,0.41436 -0.298397,0.7927 -0.400883,1.20265 -0.03241,0.12964 0.133628,0.40089 0,0.40089 -0.188979,0 -0.31637,-0.23186 -0.400883,-0.40089 -0.05976,-0.11952 0,-0.26725 0,-0.40088 0,-0.66814 0,-1.33628 0,-2.00442 0,-3.12695 -0.126773,0.76062 0.400883,-2.4053 0.13181,-0.79086 -0.13181,-1.61445 0,-2.40531 0.06947,-0.41682 0.267256,-0.80176 0.400883,-1.20265 0.133628,-0.40088 0.243946,-0.8103 0.400884,-1.20265 0.110971,-0.27743 0.289912,-0.52434 0.400883,-0.80177 0.156938,-0.39234 0.211905,-0.82469 0.400884,-1.20265 0.08451,-0.16903 0.296058,-0.24364 0.400883,-0.40088 0.165746,-0.24862 0.235141,-0.55315 0.400886,-0.80177 0.104826,-0.15724 0.267256,-0.26726 0.400884,-0.40088 0.133628,-0.13363 0.231854,-0.31637 0.400883,-0.40089 0.11952,-0.0598 0.281363,0.0598 0.400884,0 0.169026,-0.0845 0.231857,-0.31637 0.400883,-0.40088 0.11952,-0.0598 0.267256,0 0.400883,0 0.133628,0 0.281364,-0.0598 0.400884,0 0.680003,0.34 0.273407,0.56526 0.400886,1.20265 0.08287,0.41436 0.267256,0.80177 0.400883,1.20265 0.285563,0.85669 0.675923,1.92529 0.801767,2.80619 0.0567,0.39685 -0.05669,0.8058 0,1.20265 0.07792,0.54543 0.322967,1.05811 0.400884,1.60354 0.09449,0.66142 0,1.33627 0,2.00441 0,0.40089 0,0.80177 0,1.20266 0,0.13362 0.133628,0.40088 0,0.40088 -0.133628,0 -0.05976,-0.28136 0,-0.40088 0.08451,-0.16903 0.267255,-0.26726 0.400883,-0.40089 0.133628,-0.26725 0.289912,-0.52433 0.400886,-0.80177 0.133628,-0.40088 0.267256,-0.80176 0.400884,-1.20265 0,-0.40088 -0.126773,-0.82234 0,-1.20265 0.152357,-0.45708 0.586298,-0.77171 0.801767,-1.20265 0.377957,-0.75591 0.366947,-1.6806 0.801766,-2.4053 0.194459,-0.3241 0.574996,-0.4994 0.80177,-0.80177 0.133628,-0.26726 0.267255,-0.53451 0.400883,-0.80177 0.133628,0 0.306393,0.0945 0.400884,0 0.09449,-0.0945 -0.133628,-0.40088 0,-0.40088 0.306083,0 0.80033,1.19978 0.801767,1.20265 0.267255,0.53451 0.61279,1.0366 0.801769,1.60353 0.215466,0.64641 0.267256,1.33628 0.400884,2.00442 0.133627,0.66814 0.267255,1.33628 0.400883,2.00442 0.133628,0.66814 0.333084,1.32643 0.400883,2.00442 0.06648,0.66483 0,1.33628 0,2.00442 0,0.53451 0,1.06903 0,1.60354 0,0.66814 0,1.33628 0,2.00442 0,0.13362 0.09449,0.30639 0,0.40088 -0.09449,0.0945 -0.281363,0.0598 -0.400883,0 -0.750223,-0.37511 -1.443183,-0.85522 -2.164773,-1.28283"
       id="path4666"
       inkscape:connector-curvature="0" />
    <path
       style="fill:none;stroke:#000000;stroke-width:0.26458332px;stroke-linecap:butt;stroke-linejoin:miter;stroke-opacity:1"
       d="m -52.916666,117.08333 c 0.451861,3.52453 0.400883,2.07607 0.400883,4.32955 0,3.20707 0,6.41414 0,9.62121 0,2.1258 -0.126769,0.29468 0.400884,2.4053 0.03638,0.14552 -0.0491,1.15355 0,1.20265 0.09449,0.0945 0.306395,0.0945 0.400883,0 0.09449,-0.0945 0,-0.26725 0,-0.40088 0,-1.15128 0.284639,-0.68791 -1.20265,-1.28283"
       id="path4668"
       inkscape:connector-curvature="0" />
    <path
       style="fill:none;stroke:#000000;stroke-width:0.26458332px;stroke-linecap:butt;stroke-linejoin:miter;stroke-opacity:1"
       d="m -47.624999,122.375 c 1.175924,1.1492 2.298872,2.35524 3.527776,3.4476 0.353918,0.31459 1.686169,0.69568 2.00442,0.80177 0.400884,0.13362 0.785834,0.33141 1.202653,0.40088 0.395428,0.0659 0.801767,0 1.20265,0 0.400884,0 0.809554,0.0786 1.202651,0 0.292999,-0.0586 0.534514,-0.26726 0.801769,-0.40088 0.267256,-0.13363 0.534512,-0.26726 0.801767,-0.40089 0.267256,-0.13362 0.590484,-0.1896 0.801767,-0.40088 0.09449,-0.0945 -0.04226,-0.27411 0,-0.40088 0.09449,-0.28347 0.328414,-0.51189 0.400886,-0.80177 0.164743,-0.65898 -0.175972,-1.44214 -0.400886,-2.00442 -0.601922,-1.50481 -1.487945,-1.74618 -2.806187,-2.4053 -0.267255,-0.13363 -0.511886,-0.32842 -0.801767,-0.40089 -0.259275,-0.0648 -0.548227,0.0845 -0.801766,0 -0.179282,-0.0598 -0.211908,-0.40088 -0.400884,-0.40088 -0.298802,0 -0.511889,0.32841 -0.801769,0.40088 -0.855218,0.21381 -0.708621,-0.34016 -1.202651,0.40089 -0.383555,0.57533 -1.113163,2.17976 -1.202653,2.80618 -0.07559,0.52914 0,1.06903 0,1.60354 0,0.53451 0,1.06902 0,1.60353 0,0.66814 -0.06648,1.3396 0,2.00442 0.279535,2.79535 0.305388,1.21525 1.202653,3.60796 0.193456,0.51588 0.154485,1.11074 0.400884,1.60353 0.169026,0.33806 0.534511,0.53451 0.801767,0.80177 0.267255,0.26726 0.487288,0.59211 0.801769,0.80177 0.111183,0.0741 0.267256,0 0.400884,0 0.267255,0 0.534511,0 0.801766,0 0.400884,0 0.809554,0.0786 1.202651,0 0.602551,-0.12051 1.270087,-0.75806 1.603536,-1.20265 0.179282,-0.23904 0.454335,-0.50779 0.400884,-0.80177 -0.03381,-0.18593 -0.374158,-0.0534 -0.561237,-0.0802"
       id="path4670"
       inkscape:connector-curvature="0" />
    <path
       style="fill:none;stroke:#000000;stroke-width:0.26458332px;stroke-linecap:butt;stroke-linejoin:miter;stroke-opacity:1"
       d="m -37.041666,127.66667 c 4.942483,3.39795 2.010304,0.34425 2.565656,2.56565 0.141857,0.56743 0.739466,0.92637 0.400884,1.60354 -0.05976,0.11952 -0.306396,0.0945 -0.400884,0 -0.123049,-0.12305 0.07439,-1.30598 0,-1.60354 -0.07247,-0.28988 -0.400883,-0.50296 -0.400883,-0.80177 0,-0.42257 0.331414,-0.78583 0.400883,-1.20265 0.06591,-0.39543 -0.06591,-0.80722 0,-1.20265 0.06947,-0.41682 0.267256,-0.80177 0.400884,-1.20265 0.133628,-0.40088 0.267255,-0.80177 0.400883,-1.20265 0.133628,-0.40089 0.183476,-0.8403 0.400884,-1.20265 0.194458,-0.3241 0.574995,-0.49941 0.801769,-0.80177 0.179279,-0.23904 0.189598,-0.59048 0.400884,-0.80177 0.211283,-0.21128 0.534511,-0.26726 0.801767,-0.40088 0.267255,-0.13363 0.511889,-0.32842 0.801766,-0.40089 0.259279,-0.0648 0.534514,0 0.80177,0 0.807429,0 1.306094,-0.12286 2.00442,0.40089 0.994362,0.74577 1.228821,1.68205 1.603534,2.80618 0.575113,1.72534 0.298396,0.7927 0.801768,2.80619 0.133627,0.53451 0.332545,1.05683 0.400883,1.60354 0.0663,0.53038 0,1.06902 0,1.60353 0.133628,0.53451 0.322966,1.05811 0.400884,1.60354 0.05669,0.39685 -0.0659,0.80722 0,1.20265 0.06947,0.41682 0.318011,0.78829 0.400884,1.20265 0.104826,0.52413 0,1.06902 0,1.60354 0,0.13362 0,0.26725 0,0.40088 0,0.13363 0.133628,0.40088 0,0.40088 -0.133628,0 0,-0.26725 0,-0.40088 -0.801768,0.66814 -1.603535,1.33628 -2.405303,2.00442"
       id="path4672"
       inkscape:connector-curvature="0" />
    <path
       style="fill:none;stroke:#000000;stroke-width:0.26458332px;stroke-linecap:butt;stroke-linejoin:miter;stroke-opacity:1"
       d="m -26.458333,106.5 c 0.801768,0.16035 1.661675,0.14112 2.405303,0.48106 0.620578,0.28369 0.346664,1.6791 0.400884,2.00442 0.06947,0.41682 0.284795,0.79634 0.400884,1.20265 0.321723,1.12603 0.595101,2.47129 0.801767,3.60795 0.145403,0.79972 0.218112,1.6133 0.400884,2.40531 0.218749,0.94791 0.597932,1.85495 0.801768,2.80618 0.197982,0.92392 0.202901,1.88227 0.400884,2.80619 0.238019,1.11076 1.185588,4.06214 1.603535,5.21149 1.842884,5.06793 -0.01322,-0.64759 1.202652,3.60796 0.133627,0.40088 0.267255,0.80176 0.400883,1.20265 0.133628,0.13362 0.31637,0.23185 0.400884,0.40088 0.05976,0.11952 -0.09449,0.3064 0,0.40088 0.09449,0.0945 0.400884,0.13363 0.400884,0 0,-0.2988 -0.328414,-0.51188 -0.400884,-0.80176 -0.06482,-0.25928 0.06482,-0.54249 0,-0.80177 -0.547844,-2.19138 -1.671809,1.04685 1.363005,-3.36742"
       id="path4674"
       inkscape:connector-curvature="0" />
    <path
       style="fill:none;stroke:#000000;stroke-width:0.26458332px;stroke-linecap:butt;stroke-linejoin:miter;stroke-opacity:1"
       d="m -31.75,117.08333 c 0.853112,0.0832 3.626348,0.4612 4.890784,0.32071 1.255938,0.002 2.385478,-0.64896 3.607954,-0.80177 0.530384,-0.0663 1.076296,0.0879 1.603535,0 3.122426,-0.5204 -1.358889,-0.40088 1.603535,-0.40088 0.267256,0 1.033058,-0.13391 0.801768,0 -0.610624,0.35352 -1.282828,0.58796 -1.924242,0.88194"
       id="path4676"
       inkscape:connector-curvature="0" />
    <path
       style="fill:none;stroke:#000000;stroke-width:0.26458332px;stroke-linecap:butt;stroke-linejoin:miter;stroke-opacity:1"
       d="m -5.2916666,122.375 c 0.1603536,-0.58797 0.5703729,-1.16103 0.4810606,-1.76389 -0.034761,-0.23464 -0.8994333,-0.50196 -1.2026516,-0.40088 -0.2834677,0.0945 -0.5118878,0.32841 -0.8017676,0.40088 -0.2592763,0.0648 -0.5424914,-0.0648 -0.8017677,0 -0.2898796,0.0725 -0.5345118,0.26726 -0.8017676,0.40088 -0.2672559,0.13363 -0.5345118,0.26726 -0.8017677,0.40089 -0.9759358,0.48797 -2.1049968,0.80319 -2.4053028,2.00442 -0.06482,0.25927 0,0.53451 0,0.80176 0,0.26726 0,0.53451 0,0.80177 0,1.14956 -0.09723,1.64393 0.400884,2.80619 0.189791,0.44285 0.534512,0.80177 0.801767,1.20265 0.8983672,1.34755 1.7015043,2.45429 3.2070711,3.20707 0.6407877,0.32039 2.2067826,0.63051 2.8061866,0.80177 0.4063101,0.11609 0.7843301,0.34112 1.2026517,0.40088 0.9725206,0.13893 2.30333644,-0.0136 3.2070706,-0.40088 1.1659317,-0.49969 2.249232,-1.69228 2.8061869,-2.80619 0.1889784,-0.37795 0.2672559,-0.80177 0.4008837,-1.20265 0.1336281,-0.40088 0.400884,-0.78008 0.400884,-1.20265 0,-0.55096 -0.3325455,-1.05683 -0.400884,-1.60354 -0.066298,-0.53038 0.1296382,-1.08498 0,-1.60353 C 3.0670354,124.05981 2.0295712,122.325 1.6035353,121.81376 1.2405922,121.37823 0.80176766,121.01199 0.40088383,120.61111 0,120.21023 -0.33004895,119.72294 -0.80176766,119.40846 c -0.85486694,-0.56991 -1.86141354,-0.40089 -2.80618694,-0.40089 -1.3749316,0 -1.0861667,-0.12677 -2.405303,0.40089 -0.2774299,0.11097 -0.5345117,0.26725 -0.8017676,0.40088 -0.2672559,0.13363 -0.9543172,0.14396 -0.8017677,0.40089 0.5406372,0.91054 1.5500842,1.44318 2.3251263,2.16477"
       id="path4678"
       inkscape:connector-curvature="0" />
    <path
       style="fill:none;stroke:#000000;stroke-width:0.26458332px;stroke-linecap:butt;stroke-linejoin:miter;stroke-opacity:1"
       d="m -142.875,48.291667 c 0.45434,0.187079 0.90779,0.746168 1.36301,0.561237 0.61901,-0.251473 0.80176,-1.069025 1.20265,-1.603536 0.40088,-0.534511 0.80177,-1.069023 1.20265,-1.603534 0.40088,-0.534514 0.84854,-1.036955 1.20265,-1.603536 0.31673,-0.506767 0.50528,-1.084673 0.80177,-1.603537 0.23904,-0.418322 0.55388,-0.789508 0.80177,-1.20265 0.15373,-0.25622 0.23514,-0.553151 0.40088,-0.801767 0.10483,-0.157242 0.50019,-0.240101 0.40088,-0.400886 -0.54699,-0.885616 -1.38973,-1.550083 -2.08459,-2.325124"
       id="path4680"
       inkscape:connector-curvature="0" />
  </g>
  <g
     inkscape:groupmode="layer"
     id="layer3"
     inkscape:label="Contact"
     style="display:inline"
     sodipodi:insensitive="true">
    <rect
       style="fill:none;stroke:#000000;stroke-width:2.26499987;stroke-miterlimit:4;stroke-dasharray:none;stroke-opacity:1"
       id="rect4683"
       width="42.333332"
       height="84.666664"
       x="21.166666"
       y="53.583332" />
    <g
       id="g4729">
      <path
         inkscape:connector-curvature="0"
         id="path4685"
         d="m -158.75,32.416668 c -0.40088,0.668139 -0.65169,1.453456 -1.20265,2.004417 -0.18898,0.188978 -0.53451,0 -0.80177,0 -0.40088,0 -0.80176,0 -1.20265,0 -0.40088,0 -0.80579,-0.05669 -1.20265,0 -1.97533,0.282191 -1.22873,0.301246 -2.80619,1.202653 -0.51886,0.296492 -1.1498,0.412853 -1.60353,0.801767 -0.50729,0.434818 -0.83204,1.047609 -1.20265,1.603536 -1.59866,2.397977 -1.25542,2.028208 -2.00442,5.21149 -0.96152,4.086468 -0.76663,3.073712 -1.20265,7.215907 -0.14059,1.335566 -0.40089,2.665894 -0.40089,4.00884 0,1.342942 0.26726,2.672558 0.40089,4.008836 0.45556,4.55566 0.12027,3.156985 1.20265,7.21591 0.49118,1.841942 0.72146,3.344368 2.00442,4.810607 0.59786,0.683276 1.81952,1.480203 2.80618,1.603536 0.66298,0.08287 1.33628,0 2.00442,0 0.53451,0 1.06902,0 1.60354,0 0.53451,0 1.07315,0.0663 1.60353,0 0.8054,-0.100677 2.00741,-0.535511 2.80619,-0.801769 0.40088,-0.133628 1.37114,-0.01336 1.20265,-0.400884 -0.32827,-0.755028 -1.33628,-0.96212 -2.00442,-1.44318"
         style="fill:none;stroke:#000000;stroke-width:0.26458332px;stroke-linecap:butt;stroke-linejoin:miter;stroke-opacity:1" />
      <path
         inkscape:connector-curvature="0"
         id="path4687"
         d="m -142.875,58.875001 c -0.61469,-0.267259 -1.18135,-0.701358 -1.84406,-0.80177 -0.29543,-0.04476 -0.53452,0.267256 -0.80177,0.400883 -0.26726,0.133628 -0.54555,0.247153 -0.80177,0.400887 -0.71723,0.430339 -1.48946,0.916918 -2.00442,1.603533 -0.17928,0.239041 -0.2216,0.562727 -0.40088,0.801767 -0.87996,1.173274 -0.9289,0.361924 -1.20265,2.00442 -0.26837,1.61023 0.57815,3.405489 1.20265,4.810606 0.24271,0.546095 0.4432,1.125453 0.80177,1.603537 1.34419,1.792253 3.50286,2.975102 5.61237,3.607953 0.65264,0.195792 1.33628,0.267256 2.00442,0.400884 0.66814,0.133628 1.32304,0.400883 2.00442,0.400883 0.68137,0 1.33628,-0.267255 2.00442,-0.400883 1.7151,-0.343022 2.38545,-0.177287 3.60795,-1.603534 0.38892,-0.453734 0.55906,-1.057442 0.80177,-1.603536 1.09954,-2.473958 0.80177,-1.59108 0.80177,-4.409723 0,-0.668139 0.13103,-1.349254 0,-2.00442 -0.14113,-0.705633 -0.53452,-1.336278 -0.80177,-2.004417 -0.79509,-1.987709 -0.46408,-1.923452 -2.00442,-3.20707 -0.37013,-0.308444 -0.75981,-0.611979 -1.20265,-0.80177 -1.42088,-0.608946 -2.98692,-0.533551 -4.40972,0 -0.55956,0.209833 -1.02219,0.66335 -1.60354,0.80177 -0.57197,0.136183 -1.29352,-0.35278 -1.76389,0 -0.74801,0.561006 -0.90698,1.639308 -1.44318,2.4053 -0.21675,0.309637 -0.47767,0.607312 -0.80177,0.80177 -0.53896,0.323379 -1.60353,0.304286 -1.60353,0.801767 0,0.133627 0.28136,0.05976 0.40088,0 0.28896,-0.144481 0.74289,-1.055847 1.20265,-0.801767 0.89379,0.493932 1.49664,1.389729 2.24495,2.084596"
         style="fill:none;stroke:#000000;stroke-width:0.26458332px;stroke-linecap:butt;stroke-linejoin:miter;stroke-opacity:1" />
      <path
         inkscape:connector-curvature="0"
         id="path4689"
         d="m -132.29166,64.166667 c 0.93539,0.106902 1.95576,-0.08325 2.80618,0.320707 0.62338,0.296103 0.40089,2.253805 0.40089,2.806187 0,0.133627 0,-0.267256 0,-0.400884 0,-0.668142 -0.0945,-1.342996 0,-2.00442 0.0779,-0.545425 0.33254,-1.056827 0.40088,-1.603536 0.0663,-0.530384 -0.11595,-1.081752 0,-1.603534 0.32074,-1.443326 1.22788,-3.066904 2.4053,-4.008839 0.37623,-0.30098 0.73939,-0.669407 1.20265,-0.801767 1.48013,-0.422894 3.21439,0.332401 4.00884,1.603533 0.38139,0.610228 0.53451,1.336281 0.80177,2.00442 0.82702,2.067542 1.05838,2.448248 1.60353,4.810607 0.18278,0.792011 0.25549,1.605587 0.40089,2.405303 0.12189,0.67038 0.31637,1.328309 0.40088,2.00442 0.0497,0.397788 -0.0786,0.809551 0,1.20265 0.0586,0.293 0.3064,0.5183 0.40089,0.801767 0.0423,0.126772 -0.0423,0.527656 0,0.400886 0.17423,-0.52269 0.26725,-1.069025 0.40088,-1.603536 0.45025,-1.800995 0.18385,-2.109949 0.64141,-1.042297"
         style="fill:none;stroke:#000000;stroke-width:0.26458332px;stroke-linecap:butt;stroke-linejoin:miter;stroke-opacity:1" />
      <path
         inkscape:connector-curvature="0"
         id="path4691"
         d="m -116.41667,37.708334 c 0.45434,1.309553 0.91473,2.617023 1.36301,3.92866 3.09316,9.050359 -1.93648,-5.715687 1.60353,5.612374 0.34055,1.089747 0.78884,2.142985 1.20266,3.20707 0.52163,1.341358 1.04503,2.682407 1.60353,4.00884 0.51072,1.212947 1.12653,2.381358 1.60354,3.607953 0.45947,1.181508 0.80176,2.405303 1.20265,3.607956 0.26725,0.801767 0.5794,1.589945 0.80177,2.405301 0.17928,0.657362 0.32564,1.327216 0.40088,2.00442 0.038,0.341873 -0.0532,3.143258 0,3.20707 0.17448,0.209378 0.53451,0.106902 0.80177,0.160356"
         style="fill:none;stroke:#000000;stroke-width:0.26458332px;stroke-linecap:butt;stroke-linejoin:miter;stroke-opacity:1" />
      <path
         inkscape:connector-curvature="0"
         id="path4693"
         d="m -121.70833,53.583334 c 4.1098,-2.054905 3.29743,-2.069044 6.25379,-2.726013 0.66514,-0.147809 1.32643,-0.333084 2.00441,-0.400883 0.66483,-0.06648 1.33629,0 2.00442,0 1.81648,0 2.23579,-0.131032 4.00884,0.400883 0.68926,0.20678 1.32174,0.57421 2.00442,0.80177 0.52269,0.174228 1.71591,-0.138499 1.60354,0.400883 -0.17116,0.821561 -1.33628,1.015572 -2.00442,1.52336"
         style="fill:none;stroke:#000000;stroke-width:0.26458332px;stroke-linecap:butt;stroke-linejoin:miter;stroke-opacity:1" />
      <path
         inkscape:connector-curvature="0"
         id="path4695"
         d="m -89.958332,53.583334 c 0.320707,-0.374161 1.117957,-0.654968 0.96212,-1.122476 -0.133628,-0.400884 -0.785831,0.331414 -1.20265,0.400883 -0.395431,0.06591 -0.807223,-0.06591 -1.202653,0 -1.02561,0.170937 -1.876833,0.804357 -2.806187,1.202653 -0.3884,0.166457 -0.835758,0.19123 -1.20265,0.400884 -1.893888,1.082219 -4.532612,3.976623 -5.211488,6.013256 -0.53192,1.59575 -0.40089,2.366222 -0.40089,4.00884 0,2.109832 -0.2988,1.847043 0.80177,3.607953 0.320274,0.512438 1.767566,2.441766 2.405305,2.806187 0.871696,0.498113 1.86804,0.400884 2.806186,0.400884 0.534512,0 1.089589,0.146841 1.603537,0 1.322133,-0.377751 1.455727,-1.307921 2.004417,-2.405304 0.267258,-0.534511 0.612791,-1.0366 0.801769,-1.603533 0.215469,-0.646407 0.267256,-1.336281 0.400884,-2.00442 0.133628,-0.668139 0.333084,-1.326431 0.400883,-2.00442 0.06648,-0.664824 0,-1.336278 0,-2.00442 0,-0.668139 0,-1.336278 0,-2.004417 0,-0.534514 0.07559,-1.074396 0,-1.603536 -0.485396,-3.397782 -0.400883,0.447886 -0.400883,-2.00442 0,-0.133628 -0.133628,-0.400884 0,-0.400884 0.133628,0 0,0.267256 0,0.400884 0,0.267255 -0.05241,0.539702 0,0.801769 0.08287,0.414362 0.284795,0.796341 0.400883,1.202651 0.15136,0.529764 0.281363,1.065694 0.400884,1.603536 1.487712,6.694696 -0.850943,-2.836474 1.202653,4.008837 0.195789,0.652637 0.235627,1.343393 0.400883,2.00442 0.102486,0.40995 0.243946,0.810305 0.400883,1.20265 0.110972,0.277432 0.328414,0.511889 0.400884,0.80177 0.06482,0.259275 -0.08451,0.548224 0,0.801766 0.265914,0.797738 0.374158,0.187079 0.801767,0.400884 0.537178,0.268589 1.015574,0.641413 1.523359,0.962123"
         style="fill:none;stroke:#000000;stroke-width:0.26458332px;stroke-linecap:butt;stroke-linejoin:miter;stroke-opacity:1" />
      <path
         inkscape:connector-curvature="0"
         id="path4697"
         d="m -74.083332,53.583334 c -0.02673,-0.374161 0.210142,-0.884941 -0.08018,-1.122476 -0.231259,-0.189212 -0.568444,0.214225 -0.801767,0.400883 -0.819952,0.65596 -1.870292,1.95017 -2.405303,2.806187 -0.691203,1.105924 -1.303666,2.809354 -1.603537,4.008839 -0.197138,0.788559 -0.267255,1.603534 -0.400883,2.405304 -0.133628,0.801767 -0.333383,1.595284 -0.400883,2.405303 -0.06658,0.798997 0,1.603534 0,2.405303 0,0.668139 -0.08287,1.341438 0,2.004417 0.08069,0.645547 0.705273,2.007402 1.20265,2.405304 0.659569,0.527655 1.656093,0.400883 2.405303,0.400883 2.946585,0 1.083297,0.131035 4.00884,-0.400883 0.799716,-0.145402 1.621115,-0.187016 2.405303,-0.400884 0.694251,-0.189341 1.310166,-0.612426 2.004417,-0.801767 0.784188,-0.21387 1.621118,-0.187015 2.405303,-0.400883 0.694254,-0.189344 1.375368,-0.452297 2.00442,-0.80177 0.58406,-0.324477 1.787089,-1.845082 1.603537,-1.20265 -0.228434,0.799513 -1.175928,1.175925 -1.76389,1.76389"
         style="fill:none;stroke:#000000;stroke-width:0.26458332px;stroke-linecap:butt;stroke-linejoin:miter;stroke-opacity:1" />
      <path
         inkscape:connector-curvature="0"
         id="path4699"
         d="m -58.208333,43.000001 c -0.641413,-0.187082 -1.28016,-0.738915 -1.924243,-0.56124 -0.407352,0.112374 -0.298394,0.7927 -0.400883,1.202653 -0.165256,0.661027 -0.278995,1.334037 -0.400884,2.00442 -0.153273,0.843008 -0.75435,4.500245 -0.801766,5.211487 -0.200195,3.002913 0.315565,5.501365 0.801766,8.418563 0.133628,0.801767 0.187016,1.621115 0.400884,2.405303 0.0013,0.0046 1.594771,3.985461 1.603536,4.008837 0.743059,1.981494 0.03676,0.474414 0.801767,2.00442 0.133628,0.267256 0.235138,0.553149 0.400884,0.801767 0.104827,0.157239 0.485399,0.231857 0.400883,0.400883 -0.155834,0.311672 -0.587962,0.374158 -0.881944,0.56124"
         style="fill:none;stroke:#000000;stroke-width:0.26458332px;stroke-linecap:butt;stroke-linejoin:miter;stroke-opacity:1" />
      <path
         inkscape:connector-curvature="0"
         id="path4701"
         d="m -63.499999,53.583334 c -0.213805,-0.507788 -0.699093,-0.975426 -0.641414,-1.52336 0.02798,-0.265787 0.534512,0 0.801767,0 0.724501,0 2.176248,-0.08999 2.806187,0 0.545425,0.07792 1.058111,0.322967 1.603536,0.400884 0.396854,0.05669 0.801767,0 1.202651,0 0.400883,0 0.809553,-0.07862 1.202652,0 0.292997,0.0586 1.050386,0.235138 0.801767,0.400883 -0.717812,0.478541 -1.656987,0.48106 -2.48548,0.721593"
         style="fill:none;stroke:#000000;stroke-width:0.26458332px;stroke-linecap:butt;stroke-linejoin:miter;stroke-opacity:1" />
      <path
         inkscape:connector-curvature="0"
         id="path4703"
         d="m -47.624999,53.583334 c -1.338996,2.368989 -2.352255,2.749516 -2.084597,4.89078 0.08451,0.676111 0.325639,1.327217 0.400884,2.00442 0.05903,0.531244 -0.115951,1.081752 0,1.603537 0.156106,0.702471 0.574209,1.321736 0.801769,2.004417 0.587584,1.76276 0.109188,1.566878 1.20265,3.207073 0.209654,0.314478 0.506632,0.565658 0.801767,0.801766 0.0996,0.07967 1.60999,1.136912 2.00442,1.202651 1.389324,0.231555 2.993612,-0.187423 4.00884,-1.202651 0.472445,-0.472445 0.903848,-1.005932 1.20265,-1.603536 0.83993,-1.679861 0.467333,-4.700587 0,-6.41414 -0.189341,-0.694254 -0.534511,-1.336281 -0.801767,-2.00442 -0.267256,-0.668139 -0.370004,-1.428731 -0.801767,-2.00442 -0.637931,-0.850572 -2.115071,-1.603533 -3.207073,-1.603533 -0.55096,0 -1.069022,0.267255 -1.603533,0.400883 -0.534512,0.133628 -1.125167,0.127529 -1.603537,0.400883 -1.348033,0.770306 -1.302475,1.451423 -1.603533,2.806187 -0.147813,0.665147 -0.978686,1.643293 -0.400886,2.00442 0.584872,0.365543 1.122476,-0.801767 1.683713,-1.20265"
         style="fill:none;stroke:#000000;stroke-width:0.26458332px;stroke-linecap:butt;stroke-linejoin:miter;stroke-opacity:1" />
    </g>
    <g
       id="g4771"
       transform="translate(-174.625,47.624999)">
      <path
         inkscape:connector-curvature="0"
         id="path4715"
         d="m 137.58333,58.875001 c -1.09897,0.223072 -0.60379,-2.667109 -1.68371,-3.207073 -0.122,-0.061 -1.02211,0 -1.20265,0 -0.26726,0 -0.53451,0 -0.80177,0 -0.13363,0 -0.27411,-0.04226 -0.40088,0 -0.28347,0.09449 -0.51189,0.328414 -0.80177,0.400883 -0.25928,0.06482 -0.54823,-0.08451 -0.80177,0 -0.35856,0.119523 -0.48729,0.592117 -0.80177,0.80177 -0.5842,0.389466 -0.83498,0.250269 -1.20265,0.801767 -0.99433,1.491498 -0.16221,0.247959 -0.40088,1.202653 -0.10249,0.40995 -0.31801,0.788286 -0.40089,1.20265 -0.0524,0.262067 0,0.534511 0,0.801767 0,0.400883 0,0.801769 0,1.202653 0,0.400883 0,0.801767 0,1.20265 0,0.267256 -0.0648,0.542491 0,0.801767 0.0725,0.28988 0.3064,0.5183 0.40089,0.801769 0.0422,0.12677 -0.0945,0.306393 0,0.400884 0.21128,0.211283 0.5183,0.306395 0.80177,0.400883 0.12677,0.04226 0.26725,0 0.40088,0 0.26725,0 0.53451,0 0.80177,0 0.26725,0 0.54249,0.06482 0.80176,0 0.28989,-0.07247 0.53452,-0.267255 0.80177,-0.400883 0.26726,-0.133628 0.59049,-0.189601 0.80177,-0.400884 0.21128,-0.211285 0.26726,-0.534511 0.40088,-0.801769 0.13363,-0.267256 0.26726,-0.534511 0.40089,-0.801767 0.13363,-0.267256 0.34228,-0.508767 0.40088,-0.801767 0.0786,-0.393099 -0.0786,-0.809553 0,-1.202653 0.0586,-0.292997 0.34229,-0.508767 0.40089,-0.801767 0.13103,-0.655164 0,-1.336278 0,-2.00442 0,-1.20265 0,-2.405303 0,-3.607953 0,-1.20265 0,-2.405303 0,-3.607954 0,-0.400886 0.12677,-0.82234 0,-1.202653 -0.0598,-0.179279 -0.31638,-0.231857 -0.40089,-0.400883 -0.0598,-0.11952 0.0945,-0.306395 0,-0.400883 -0.0945,-0.09449 -0.30639,-0.09449 -0.40088,0 -0.0945,0.09449 0,0.267255 0,0.400883 0,0.267256 -0.0648,0.542491 0,0.801767 0.0725,0.28988 0.34228,0.50877 0.40088,0.801769 0.0786,0.393097 -0.0659,0.80722 0,1.202651 0.13894,0.833638 0.56959,1.592683 0.80177,2.405303 0.15136,0.529762 0.18753,1.095558 0.40088,1.603536 0.35187,0.837777 1.09244,1.516804 1.28283,2.405304 0.22406,1.04562 -0.15774,2.140529 -0.0802,3.20707 0.0218,0.300199 0.92624,2.529766 1.20266,2.806186 0.21128,0.211283 0.55315,0.235138 0.80176,0.400884 0.15724,0.104825 0.22161,0.341124 0.40089,0.400883 0.25354,0.08451 0.54249,-0.06482 0.80177,0 0.28988,0.07247 0.50296,0.400884 0.80176,0.400884 0.2988,0 0.51189,-0.328414 0.80177,-0.400884 0.51855,-0.129638 1.08498,0.129638 1.60354,0 1.16265,-0.290663 0.46914,-0.312758 1.20265,-0.801767 0.92175,-0.614502 1.08266,-0.187266 2.00442,-0.801769 0.55149,-0.367663 0.4123,-0.61845 0.80176,-1.20265 0.20966,-0.314479 0.59212,-0.487289 0.80177,-0.801767 1.16725,-1.750878 -0.17767,0.132138 0.40089,-1.603537 0.0598,-0.179281 0.31637,-0.231857 0.40088,-0.400883 0.0598,-0.11952 0,-0.267256 0,-0.400884 0,-0.267255 0,-0.534511 0,-0.801766 0,-0.267259 0.0845,-0.548228 0,-0.80177 -0.0945,-0.283467 -0.30639,-0.5183 -0.40088,-0.801767 -0.0423,-0.12677 0.0945,-0.306395 0,-0.400883 -0.21129,-0.211286 -0.55315,-0.235141 -0.80177,-0.400884 -0.15724,-0.104828 -0.2216,-0.341124 -0.40089,-0.400886 -0.25354,-0.08451 -0.53451,0 -0.80176,0 -0.26726,0 -0.53452,0 -0.80177,0 -0.26726,0 -0.54823,-0.08451 -0.80177,0 -0.17928,0.05976 -0.24364,0.296058 -0.40088,0.400886 -0.24862,0.165743 -0.59049,0.189598 -0.80177,0.400884 -0.29493,0.294931 -0.72349,1.769586 -0.80177,2.00442 -0.13363,0.400883 -0.34112,0.784328 -0.40088,1.20265 -0.0756,0.52914 0,1.069022 0,1.603536 0,0.534511 -0.0756,1.074394 0,1.603534 0.0598,0.418322 0.26725,0.801767 0.40088,1.202653 0.13363,0.400883 0.14735,0.864595 0.40089,1.20265 0.17928,0.239041 0.54554,0.247153 0.80176,0.400884 0.41315,0.247885 0.73939,0.669406 1.20265,0.801769 0.51395,0.146841 1.06903,0 1.60354,0 2.28491,0 1.0794,0.104825 3.60795,-0.400886 0.66814,-0.133628 1.33629,-0.267256 2.00442,-0.400883 0.53452,0 1.0763,0.08787 1.60354,0 0.29474,-0.04912 0.5183,-0.306393 0.80177,-0.400884 0.12677,-0.04226 0.28136,0.05976 0.40088,0 0.16903,-0.08451 0.2348,-0.310724 0.40088,-0.400883 0.77759,-0.422119 1.60354,-0.748316 2.40531,-1.122474"
         style="fill:none;stroke:#000000;stroke-width:0.26458332px;stroke-linecap:butt;stroke-linejoin:miter;stroke-opacity:1" />
      <g
         id="g4736">
        <path
           style="fill:none;stroke:#000000;stroke-width:0.26458332px;stroke-linecap:butt;stroke-linejoin:miter;stroke-opacity:1"
           d="m 89.958332,53.583334 c 0.213805,0.02673 0.668139,-0.13363 0.641414,0.08018 -0.02673,0.213804 -0.545053,-0.2729 -0.641414,-0.08018 -0.379841,0.759682 -0.322654,1.670322 -0.561237,2.485477 -0.182456,0.623396 -0.934775,1.535637 -1.202653,2.00442 -2.152668,3.767172 0.733079,-0.625425 -2.004417,3.20707 -1.048792,1.468308 -1.53267,2.882617 -2.405303,4.409723 -0.604396,1.057693 -0.579615,0.980498 -1.202653,1.603537 -0.301098,0.301098 -0.886886,0.801766 -0.400883,0.801766 0.188978,0 0.231857,-0.31637 0.400883,-0.400883 0.11952,-0.05976 0.271246,0.03241 0.400884,0 0.409953,-0.102489 0.785833,-0.331414 1.202652,-0.400883 0.395428,-0.06591 0.804863,0.04972 1.202651,0 2.430184,-0.303774 1.547992,-0.6246 4.008839,-0.400884 0.809488,0.07359 1.605587,0.255479 2.405304,0.400884 1.136665,0.206666 2.481924,0.480044 3.607953,0.801766 0.570437,0.162981 1.472179,0.446943 2.00442,0.801767 0.157239,0.104828 0.211905,0.400884 0.400883,0.400884 0.133628,0 0.133369,-0.409218 0,-0.400884 -0.873736,0.05461 -1.710438,0.374158 -2.565656,0.56124"
           id="path4705"
           inkscape:connector-curvature="0" />
        <path
           style="fill:none;stroke:#000000;stroke-width:0.26458332px;stroke-linecap:butt;stroke-linejoin:miter;stroke-opacity:1"
           d="m 105.83333,58.875001 c -0.13363,0 -0.40088,0.133627 -0.40088,0 0,-0.133631 0.53269,-0.02196 0.40088,0 -0.93204,0.155336 -1.90978,0.102081 -2.80618,0.400883 -0.35857,0.11952 -0.53452,0.534511 -0.80177,0.801767 -1.01305,1.013052 -0.63274,0.463711 -1.20265,1.603536 -0.13363,0.267256 -0.32842,0.511887 -0.40089,0.801767 -0.0648,0.259276 0,0.534511 0,0.801767 0,0.400883 -0.12677,0.822341 0,1.202653 0.15236,0.457076 0.55388,0.789509 0.80177,1.20265 0.43733,0.72888 0.23081,1.008285 1.20265,1.202653 0.3931,0.07862 0.80177,0 1.20265,0 0.26726,0 0.54249,0.06482 0.80177,0 0.56179,-0.140449 1.32165,-0.732835 1.60354,-1.202653 0.21741,-0.362349 0.24394,-0.810305 0.40088,-1.20265 0.58016,-1.450412 0.40088,-0.113781 0.40088,-2.00442 0,-0.400883 0,-0.801767 0,-1.202653 0,-0.267255 0.11953,-0.562726 0,-0.801767 -0.2988,-0.597601 -1.60353,-2.138047 -1.20265,-1.603533 0.80177,1.069022 1.61934,2.126371 2.40531,3.20707 1.34856,1.854268 0.1966,0.59749 1.60353,2.004417 0.012,0.01201 1.44161,1.522576 1.60354,1.603536 0.38039,0.190199 1.15075,-0.452781 0.80176,-0.801767 -0.31452,-0.314523 -0.74831,-0.48106 -1.12247,-0.72159"
           id="path4707"
           inkscape:connector-curvature="0" />
        <path
           style="fill:none;stroke:#000000;stroke-width:0.26458332px;stroke-linecap:butt;stroke-linejoin:miter;stroke-opacity:1"
           d="m 116.41667,53.583334 c -0.0535,1.496631 -0.0134,2.999536 -0.16036,4.489897 -0.12374,1.255123 -0.65619,1.312378 -1.20265,2.405303 -0.18898,0.377958 -0.24394,0.810308 -0.40088,1.202653 -0.11098,0.277429 -0.26726,0.534511 -0.40089,0.801767 -0.13363,0.267256 -0.1896,0.590484 -0.40088,0.801767 -0.0945,0.09449 -0.3064,-0.09449 -0.40088,0 -0.0945,0.09449 -0.0945,0.306395 0,0.400883 0.01,0.01 1.85381,0 2.00441,0 1.46991,0 2.93982,0 4.40973,0 1.69214,0 3.24757,-0.346876 4.40972,1.202653 0.17928,0.239041 0.28991,0.524338 0.40088,0.801767 0.47886,1.197131 0.59844,2.010188 0,3.20707 -0.0845,0.169029 -0.29606,0.243645 -0.40088,0.400884 -0.16575,0.248618 -0.15227,0.636024 -0.40089,0.801769 -0.22237,0.148246 -0.53451,0 -0.80176,0 -1.17973,0 -0.61279,0.188979 -1.60354,-0.801769 -0.26725,-0.267256 -1.11625,-1.01142 -0.80177,-0.801767 0.39342,0.262276 0.69487,0.641413 1.0423,0.962123"
           id="path4709"
           inkscape:connector-curvature="0" />
        <path
           style="fill:none;stroke:#000000;stroke-width:0.26458332px;stroke-linecap:butt;stroke-linejoin:miter;stroke-opacity:1"
           d="m 121.70833,58.875001 c 0.53852,2.314545 3.29994,2.716204 4.57008,4.40972 0.17928,0.23904 0.30639,0.5183 0.40088,0.801767 0.0423,0.126772 -0.13363,0.400886 0,0.400886 0.18898,0 0.26726,-0.267256 0.40089,-0.400886 0.0267,-0.02673 -0.0535,0.05345 -0.0802,0.08018"
           id="path4711"
           inkscape:connector-curvature="0" />
        <path
           style="fill:none;stroke:#000000;stroke-width:0.26458332px;stroke-linecap:butt;stroke-linejoin:miter;stroke-opacity:1"
           d="m 158.75,53.583334 c -0.44583,-1.24832 -0.004,-1.122476 -0.80177,-1.122476 -0.26725,0 -0.53451,0 -0.80177,0 -0.13363,0 -0.30639,-0.09449 -0.40088,0 -0.0945,0.09449 -0.11659,0.335592 0,0.400883 0.61958,0.346967 1.33074,0.497033 2.00442,0.721593 0.93019,0.310063 1.88073,0.558033 2.80618,0.881944 0.67921,0.237722 1.32174,0.574206 2.00442,0.801766 0.92291,0.307634 1.87638,0.515673 2.80619,0.801767 2.19203,0.674471 2.90053,1.070237 5.21149,1.603537 7.08781,1.635648 -1.86648,-0.889416 4.40972,1.202653 0.52269,0.174228 1.06007,0.310306 1.60354,0.400883 0.76212,0.127021 0.94112,-0.261535 1.60353,0.400883 0.0945,0.09449 0.0945,0.306393 0,0.400884 -0.18897,0.188979 -0.56272,-0.11952 -0.80177,0 -0.33805,0.169026 -0.46371,0.63274 -0.80176,0.801767 -0.98736,0.493678 0.36189,-1.163659 -1.20265,0.400883 -0.21129,0.211286 -0.1896,0.590484 -0.40089,0.80177 -0.34068,0.340685 -0.83252,0.493323 -1.20265,0.801767 -0.87106,0.725887 -1.5444,1.66739 -2.4053,2.405303 -0.50729,0.434819 -1.09625,0.767831 -1.60354,1.20265 -0.43045,0.368959 -0.7722,0.833697 -1.20265,1.202653 -1.2898,1.105546 -1.25314,1.027454 -2.4053,1.603534 -0.26726,0.133628 -0.55315,0.23514 -0.80177,0.400886 -0.15724,0.104825 -0.2119,0.400883 -0.40088,0.400883 -0.18898,0 -0.22161,-0.341124 -0.40089,-0.400883 -0.48769,-0.162565 -1.01557,-0.160354 -1.52336,-0.24053"
           id="path4717"
           inkscape:connector-curvature="0" />
      </g>
    </g>
  </g>
</svg>
